# xmcd
#
# Track frame offsets:
#	150
#	18177
#	34522
#	50377
#	68542
#	87342
#	105122
#	121325
#	138610
#	156800
#
# Disc length: 2351 seconds
#
# Revision: 1
# Processed by: cddbd v1.5PL3 Copyright (c) Steve Scherf et al.
# Submitted via: audiograbber 1.83.01
#
DISCID=70092d0a
DTITLE=Tintenfish - Evolution
DYEAR=1989
DGENRE=Blues
TTITLE0=Golden Chains
TTITLE1=What Happened
TTITLE2=Any Time
TTITLE3=Small Talk
TTITLE4=How can i know
TTITLE5=Boogaloo
TTITLE6=Burn the Uniforms
TTITLE7=Morning Sun
TTITLE8=Wasring Time
TTITLE9=Evolution
EXTD=
EXTT0=
EXTT1=
EXTT2=
EXTT3=
EXTT4=
EXTT5=
EXTT6=
EXTT7=
EXTT8=
EXTT9=
PLAYORDER=
